<svg xmlns="http://www.w3.org/2000/svg" width="344" height="345" viewBox="0 0 344 345" fill="none">
<rect width="344" height="345" fill="black"/>
<path d="M207.5 120.61C175.9 111.41 172.667 104.777 175 102.61C176.939 82.062 248.174 69.1982 286 65.1102C168.8 63.0011 138.333 91.6859 138.5 106.11C140.5 152.61 250 127.11 215 193.11C187 245.91 110.667 238.11 76 227.61C109.6 287.21 189 291.976 223 271.5C357 190.801 261.833 133.444 207.5 120.61Z" fill="white"/>
<path d="M95.5 171C182.3 249 206.333 204 207 173.5C159 183.5 142 148.5 105.5 143C76.3 138.6 60.3333 157.5 56 167.5C82 149.1 99.8333 150.833 105.5 154C96.7 158.4 95.1667 167.167 95.5 171Z" fill="white"/>
<path d="M68 212.5C106.4 234.1 148.333 227.167 164.5 221C150.5 221 126 207.667 115.5 201C90.5 181 64 189.5 60.5 189.5C57.7 189.5 64.3333 204.833 68 212.5Z" fill="white"/>
</svg>
